<svg id="Layer_3" enable-background="new 0 0 64 64" height="512" viewBox="0 0 64 64" width="512" xmlns="http://www.w3.org/2000/svg"><path d="m43 34h9c5.523 0 10-4.477 10-10s-4.477-10-10-10c-1.831 0-3.542.5-5.018 1.36.003-.121.018-.239.018-.36 0-7.18-5.82-13-13-13-6.238 0-11.445 4.396-12.705 10.258-1.241-.792-2.712-1.258-4.295-1.258-4.418 0-8 3.582-8 8 0 .341.028.674.07 1.004-.024-.001-.047-.004-.07-.004-3.866 0-7 3.134-7 7s3.134 7 7 7h13" fill="#4d5d7a"/><path d="m22.5 28c13.46 0 24.733-5.895 27.719-13.82-1.158.212-2.253.607-3.237 1.179.003-.12.018-.238.018-.359 0-7.18-5.82-13-13-13-6.238 0-11.445 4.396-12.705 10.258-1.241-.792-2.712-1.258-4.295-1.258-4.418 0-8 3.582-8 8 0 .341.028.674.07 1.004-.024-.001-.047-.004-.07-.004-2.463 0-4.625 1.275-5.872 3.198 5.085 2.978 11.89 4.802 19.372 4.802z" fill="#8892a0"/><g fill="#f5b953"><path d="m27 49 13-15h-7l5-9h-9l-5 12h5z"/><path d="m53 62 9-11h-5l3-5h-6l-4 8h5z"/><path d="m5 62 9-11h-5l3-5h-6l-4 8h5z"/></g><path d="m52 35h-9v-2h9c4.963 0 9-4.037 9-9s-4.037-9-9-9c-1.579 0-3.14.423-4.516 1.224-.313.184-.702.182-1.016-.006-.312-.187-.499-.527-.486-.891l.018-.327c0-6.617-5.383-12-12-12-5.616 0-10.549 3.982-11.728 9.469-.068.32-.29.587-.593.713-.3.126-.646.097-.923-.08-1.127-.721-2.426-1.102-3.756-1.102-3.859 0-7 3.141-7 7 0 .299.025.591.062.881.036.291-.058.584-.257.801-.198.217-.463.343-.777.321-.002 0-.004 0-.005 0-3.335 0-6.023 2.69-6.023 5.997 0 3.309 2.691 6 6 6h13v2h-13c-4.411 0-8-3.589-8-8 0-4.073 3.059-7.444 7-7.938 0-.021 0-.041 0-.062 0-4.963 4.037-9 9-9 1.265 0 2.507.268 3.653.78 1.819-5.738 7.236-9.78 13.347-9.78 7.309 0 13.327 5.629 13.947 12.78 1.288-.513 2.665-.78 4.053-.78 6.065 0 11 4.935 11 11s-4.935 11-11 11z"/><path d="m27 50c-.145 0-.289-.031-.426-.095-.405-.191-.634-.628-.561-1.069l1.806-10.836h-3.819c-.334 0-.646-.167-.832-.445s-.22-.631-.091-.939l5-12c.155-.373.52-.616.923-.616h9c.354 0 .683.188.862.493.18.305.184.683.012.992l-4.175 7.515h5.301c.392 0 .747.229.909.585.163.355.103.774-.153 1.07l-13 15c-.194.225-.473.345-.756.345zm-1.5-14h3.5c.294 0 .573.129.763.354s.272.521.224.811l-1.416 8.497 9.239-10.662h-4.81c-.354 0-.683-.188-.862-.493-.18-.305-.184-.683-.012-.992l4.175-7.515h-6.634z"/><path d="m53 63c-.152 0-.306-.034-.449-.106-.418-.21-.635-.682-.521-1.136l1.689-6.758h-3.719c-.347 0-.668-.18-.851-.475s-.199-.663-.044-.973l4-8c.17-.338.516-.552.895-.552h6c.36 0 .692.193.87.507s.173.699-.013 1.008l-2.09 3.485h3.233c.387 0 .738.223.903.571.166.35.115.763-.129 1.062l-9 11c-.195.239-.482.367-.774.367zm-1.382-10h3.382c.308 0 .599.142.788.385.189.242.257.559.182.857l-.917 3.67 4.837-5.912h-2.89c-.36 0-.692-.193-.87-.507s-.173-.699.013-1.008l2.09-3.485h-3.615z"/><path d="m5 63c-.152 0-.306-.034-.449-.106-.418-.21-.635-.682-.521-1.136l1.689-6.758h-3.719c-.347 0-.668-.18-.851-.475s-.199-.663-.044-.973l4-8c.17-.338.516-.552.895-.552h6c.36 0 .692.193.87.507s.173.699-.013 1.008l-2.09 3.485h3.233c.387 0 .738.223.903.571.166.35.115.763-.129 1.062l-9 11c-.195.239-.482.367-.774.367zm-1.382-10h3.382c.308 0 .599.142.788.385.189.242.257.559.182.857l-.917 3.67 4.837-5.912h-2.89c-.36 0-.692-.193-.87-.507s-.173-.699.013-1.008l2.09-3.485h-3.615z"/></svg>