<?xml version="1.0" encoding="iso-8859-1"?>
<!-- Generator: Adobe Illustrator 19.0.0, SVG Export Plug-In . SVG Version: 6.00 Build 0)  -->
<svg version="1.1" id="Layer_1" xmlns="http://www.w3.org/2000/svg" xmlns:xlink="http://www.w3.org/1999/xlink" x="0px" y="0px"
	 viewBox="0 0 485 485" style="enable-background:new 0 0 485 485;" xml:space="preserve">
<g>
	<path d="M330.924,114.191c0-31.9-25.953-57.853-57.854-57.853h-20v30h20c15.358,0,27.854,12.495,27.854,27.853
		s-12.495,27.853-27.854,27.853H0v30h273.07C304.971,172.044,330.924,146.091,330.924,114.191z"/>
	<path d="M350.109,312.956H0v30h350.109c15.358,0,27.853,12.495,27.853,27.853s-12.494,27.853-27.853,27.853h-20v30h20
		c31.9,0,57.853-25.953,57.853-57.853S382.01,312.956,350.109,312.956z"/>
	<rect x="171.088" y="227.5" width="313.912" height="30"/>
	<rect y="227.5" width="123.044" height="30"/>
</g>
<g>
</g>
<g>
</g>
<g>
</g>
<g>
</g>
<g>
</g>
<g>
</g>
<g>
</g>
<g>
</g>
<g>
</g>
<g>
</g>
<g>
</g>
<g>
</g>
<g>
</g>
<g>
</g>
<g>
</g>
</svg>
